<?xml version="1.0" encoding="utf-8"?>
<!-- Generator: Adobe Illustrator 25.0.0, SVG Export Plug-In . SVG Version: 6.00 Build 0)  -->
<svg version="1.1" xmlns="http://www.w3.org/2000/svg" xmlns:xlink="http://www.w3.org/1999/xlink" x="0px" y="0px"
	 viewBox="0 0 200 200" style="enable-background:new 0 0 200 200;" xml:space="preserve">
<style type="text/css">
	.st0{fill:#6C63FF;}
	.st1{display:none;fill:#64FFDA;}
	.st2{fill:#FFFFFF;}
</style>
<g id="图层_1">
	<g id="图层_1_1_">
		<path id="背景" class="st0" d="M150.8,191.5H49.2c-22.5,0-40.7-18.2-40.7-40.7V49.2c0-22.5,18.2-40.7,40.7-40.7h101.6
			c22.5,0,40.7,18.2,40.7,40.7v101.6C191.5,173.2,173.2,191.5,150.8,191.5z"/>
		<path class="st1" d="M87.8,131.8"/>
	</g>
	<g id="图层_2_1_">
		<polygon class="st2" points="87.8,73.4 87.8,164.7 99.1,177.4 158.4,177.5 158.4,150.3 111.7,150.3 111.7,100.5 158.4,100.5 
			158.4,73.4 		"/>
	</g>
</g>
<g id="图层_2">
	<path class="st2" d="M87.9,22.2l-0.1,44.3c0,0.6,0.5,1,1,1h21.9c0.6,0,1-0.5,1-1V22.2c0-0.6-0.5-1-1-1H88.9
		C88.4,21.2,87.9,21.7,87.9,22.2z"/>
</g>
<g id="图层_3">
	<path class="st2" d="M81.4,73.4H43.5c-0.8,0-1.4,0.6-1.4,1.4v24.2c0,0.8,0.6,1.4,1.4,1.4h37.8c0.8,0,1.4-0.6,1.4-1.4V74.8
		C82.8,74,82.2,73.4,81.4,73.4z"/>
</g>
</svg>
