<?xml version="1.0" encoding="utf-8"?>
<!-- Generator: Adobe Illustrator 25.0.0, SVG Export Plug-In . SVG Version: 6.00 Build 0)  -->
<svg version="1.1" xmlns="http://www.w3.org/2000/svg" xmlns:xlink="http://www.w3.org/1999/xlink" x="0px" y="0px"
	 viewBox="0 0 200 200" style="enable-background:new 0 0 200 200;" xml:space="preserve">
<style type="text/css">
	.st0{fill:#6C63FF;}
	.st1{fill:#3F3D56;}
	.st2{display:none;fill:#64FFDA;}
	.st3{fill:#FFFFFF;}
</style>
<g id="图层_1">
	<path id="背景" class="st0" d="M150.8,191.5H49.2c-22.5,0-40.7-18.2-40.7-40.7V49.2c0-22.5,18.2-40.7,40.7-40.7h101.6
		c22.5,0,40.7,18.2,40.7,40.7v101.6C191.5,173.2,173.2,191.5,150.8,191.5z"/>
	<path id="上边" class="st1" d="M109.8,67.5h-20c-1.1,0-1.9-0.9-1.9-1.9V23.1c0-1.1,0.9-1.9,1.9-1.9h20c1.1,0,1.9,0.9,1.9,1.9
		v42.5C111.7,66.7,110.8,67.5,109.8,67.5z"/>
	<path id="左边" class="st1" d="M81.1,100.5H43.8c-0.9,0-1.7-0.8-1.7-1.7V75.1c0-0.9,0.8-1.7,1.7-1.7h37.3c0.9,0,1.7,0.8,1.7,1.7
		v23.7C82.8,99.7,82,100.5,81.1,100.5z"/>
	<path class="st2" d="M87.8,131.8"/>
</g>
<g id="图层_2">
	<polygon class="st3" points="87.8,73.4 87.8,164.7 99.1,177.4 158.4,177.5 158.4,150.3 111.7,150.3 111.7,100.5 158.4,100.5 
		158.4,73.4 	"/>
</g>
</svg>
