<?xml version="1.0" encoding="utf-8"?>
<!-- Generator: Adobe Illustrator 25.0.0, SVG Export Plug-In . SVG Version: 6.00 Build 0)  -->
<svg version="1.1" id="图层_1" xmlns="http://www.w3.org/2000/svg" xmlns:xlink="http://www.w3.org/1999/xlink" x="0px" y="0px"
	 viewBox="0 0 200 200" style="enable-background:new 0 0 200 200;" xml:space="preserve">
<style type="text/css">
	.st0{fill:#6C63FF;}
	.st1{fill:#3F3D56;}
	.st2{fill:#FFFFFF;}
	.st3{display:none;fill:#64FFDA;}
</style>
<path class="st0" d="M150.8,191.5H49.2c-22.5,0-40.7-18.2-40.7-40.7V49.2c0-22.5,18.2-40.7,40.7-40.7h101.6
	c22.5,0,40.7,18.2,40.7,40.7v101.6C191.5,173.2,173.2,191.5,150.8,191.5z"/>
<image style="display:none;overflow:visible;opacity:0.5;" width="650" height="650" xlink:href="logo.png"  transform="matrix(0.284 0 0 0.284 7.8368 7.6316)">
</image>
<path class="st1" d="M109.8,67.5h-20c-1.1,0-1.9-0.9-1.9-1.9V23.1c0-1.1,0.9-1.9,1.9-1.9h20c1.1,0,1.9,0.9,1.9,1.9v42.5
	C111.7,66.7,110.8,67.5,109.8,67.5z"/>
<path class="st1" d="M81.1,100.5H43.8c-0.9,0-1.7-0.8-1.7-1.7V75.1c0-0.9,0.8-1.7,1.7-1.7h37.3c0.9,0,1.7,0.8,1.7,1.7v23.7
	C82.8,99.7,82,100.5,81.1,100.5z"/>
<rect id="上" x="87.8" y="73.4" class="st2" width="70.6" height="27.1"/>
<polyline id="左" class="st2" points="87.8,149.8 87.8,73.4 111.7,73.4 111.7,159.3 87.8,159.3 87.8,149.8 "/>
<rect id="下" x="110.6" y="150.3" class="st2" width="47.8" height="27.2"/>
<path class="st3" d="M87.8,131.8"/>
<polygon class="st2" points="87.8,144.8 87.8,164.7 99.1,177.4 110.6,177.4 110.6,143.6 "/>
</svg>
