<?xml version="1.0" encoding="utf-8"?>
<!-- Generator: Adobe Illustrator 25.0.0, SVG Export Plug-In . SVG Version: 6.00 Build 0)  -->
<svg version="1.1" id="bb554b9e-b999-4ef3-b2f2-4c0395b94ae2"
	 xmlns="http://www.w3.org/2000/svg" xmlns:xlink="http://www.w3.org/1999/xlink" x="0px" y="0px" viewBox="0 0 883.2 600.1"
	 style="enable-background:new 0 0 883.2 600.1;" xml:space="preserve">
<style type="text/css">
	.st0{fill:#FFB8B8;}
	.st1{fill:#2F2E41;}
	.st2{fill:#6C63FF;}
	.st3{fill:#CCCCCC;}
	.st4{fill:#F2F2F2;}
	.st5{fill:#FFFFFF;}
	.st6{fill:#3F3D56;}
	.st7{enable-background:new    ;}
	.st8{fill:#3F3D56;stroke:#000000;stroke-width:3;stroke-miterlimit:10;}
</style>
<circle class="st0" cx="107.1" cy="254.9" r="24.6"/>
<polygon class="st0" points="24.1,549.2 30.3,559.8 74.1,540.8 64.9,525.2 "/>
<path class="st1" d="M26,544.5l12.2,20.8l0,0c4.3,7.3,1.9,16.8-5.5,21.1l0,0l-0.4,0.3l-20.1-34.1L26,544.5z"/>
<polygon class="st0" points="96.2,587.3 108.4,587.3 114.3,540 96.2,540 "/>
<path class="st1" d="M93.1,583.3h24.1l0,0c8.5,0,15.4,6.9,15.4,15.4l0,0v0.5H93.1V583.3z"/>
<path class="st1" d="M46.9,558.6c-1.4,0-2.8-0.7-3.6-1.8l-11.8-16.1c-1.5-2-1-4.8,1-6.3c0.1,0,0.1-0.1,0.2-0.1l52.6-35.1l-31.7-83.5
	l67.9,5.6l2.3,71.7c0.4,13.3-6.5,25.8-18,32.4L49.1,558C48.5,558.4,47.7,558.6,46.9,558.6z"/>
<path class="st1" d="M96.6,577.7c-2.4,0-4.4-1.9-4.5-4.3l-2.5-69.9l30.8-1.6l-2.5,70.4c-0.1,2.3-1.9,4.2-4.2,4.3l-16.9,1.1
	C96.8,577.7,96.7,577.7,96.6,577.7z"/>
<path class="st2" d="M129.2,435.2c-7.8,0-35.2-8.8-44.7-12c-1.4,1.1-9.2,7-18.4,5.9c-5.6-0.7-10.6-3.8-14.7-9.5
	c-9.1-12.4,2.2-65.7,13.2-108.1c4.6-17.8,22.5-28.8,40.5-24.9l0,0c12.8,2.8,22.9,12.7,26.1,25.4c2.1,8.5,0.3,18.5-1,25.8
	c-0.6,3.4-1.1,6.1-0.9,7.5c0.6,5.1,4.2,85.9,1.9,89.3C131,435,130.3,435.2,129.2,435.2z"/>
<path class="st0" d="M100.5,435.3c4.8-3.5,5.7-10.3,2.2-15c-0.4-0.5-0.8-1-1.3-1.4l0.5-97.8l-23,3.8l6.8,95
	c-3.8,4.6-3.1,11.4,1.5,15.2C91,438.2,96.5,438.3,100.5,435.3z"/>
<path class="st2" d="M105.8,383.9H81c-2.5,0-4.5-2-4.5-4.5l-0.6-67.3c-0.1-9.7,7.7-17.7,17.4-17.8s17.7,7.7,17.8,17.4
	c0,0.1,0,0.2,0,0.4l-0.8,67.3C110.3,381.9,108.3,383.9,105.8,383.9z"/>
<path class="st1" d="M100.9,279.3c-11.2,0-21.9-8.9-23.8-19.9c-0.7-4.4-0.4-8.8,0.9-13c5.5-18.5,24.9-29.1,43.4-23.6
	c1.5,0.5,3.1,1,4.5,1.7c3,1.4,6,3.3,7.3,6.3s0.5,7.2-2.5,8.5c-2,0.9-4.4,0.4-6.2,1.7c-2.5,1.8-1.9,5.7-0.7,8.6s2.4,6.4,0.5,8.9
	c-1.8,2.3-5.2,2.2-8,1.4s-5.5-2.3-8.3-2c-4.2,0.4-7.2,4.6-7.8,8.8s0.8,8.3,2.1,12.4L100.9,279.3z"/>
<path class="st3" d="M215.6,600.1h-258c-0.6,0-1-0.4-1-1s0.4-1,1-1h258c0.6,0,1,0.4,1,1S216.1,600.1,215.6,600.1z"/>
<path class="st4" d="M866.7,434.5H225.9c-9.1,0-16.5-7.4-16.5-16.5V22.9c0-6.7,5.4-12.1,12.1-12.1H871c6.8,0,12.3,5.5,12.3,12.3V418
	C883.2,427.2,875.8,434.5,866.7,434.5z"/>
<path class="st5" d="M846,413.7H248.7c-8.8,0-15.9-6.7-15.9-14.9V54.7c0-6.1,5.3-11,11.8-11h605.3c6.6,0,12,5,12,11.2v343.9
	C861.9,407,854.7,413.7,846,413.7z"/>
<path class="st6" d="M883,25H209.1v-8.4c0-9.1,7.4-16.5,16.6-16.5h640.7c9.1,0,16.5,7.4,16.6,16.5V25z"/>
<circle class="st5" cx="239.2" cy="12.5" r="4.3"/>
<ellipse transform="matrix(0.4363 -0.8998 0.8998 0.4363 132.7766 236.9507)" class="st5" cx="255.5" cy="12.5" rx="4.3" ry="4.3"/>
<circle class="st5" cx="271.8" cy="12.5" r="4.3"/>
<path class="st3" d="M533.2,119H416.4c-3.6,0-6.6-2.9-6.6-6.6c0-3.6,2.9-6.6,6.6-6.6h116.8c3.6,0,6.6,2.9,6.6,6.6
	S536.8,119,533.2,119L533.2,119z"/>
<path class="st3" d="M678.3,119H561.5c-3.6,0-6.6-2.9-6.6-6.6c0-3.6,2.9-6.6,6.6-6.6h116.8c3.6,0,6.6,2.9,6.6,6.6S682,119,678.3,119
	L678.3,119z"/>
<path class="st3" d="M678.3,143.8H475.1c-3.6,0-6.6-2.9-6.6-6.6s2.9-6.6,6.6-6.6l0,0h203.2c3.6,0,6.6,2.9,6.6,6.6
	S682,143.8,678.3,143.8z"/>
<path class="st3" d="M533.2,93.7H416.4c-3.6,0-6.6-3-6.6-6.6s2.9-6.5,6.6-6.6h116.8c3.6,0,6.6,2.9,6.6,6.6S536.8,93.7,533.2,93.7
	L533.2,93.7z"/>
<path class="st3" d="M597.5,94.1h-33.2c-3.6,0-6.6-2.9-6.6-6.6c0-3.6,2.9-6.6,6.6-6.6h33.2c3.6,0,6.6,2.9,6.6,6.6
	C604,91.1,601.1,94.1,597.5,94.1L597.5,94.1z"/>
<path class="st3" d="M449.6,143.8h-33.2c-3.6,0-6.6-3-6.6-6.6s2.9-6.5,6.6-6.6h33.2c3.6,0,6.6,2.9,6.6,6.6S453.2,143.8,449.6,143.8
	L449.6,143.8z"/>
<path class="st3" d="M533.2,352H416.4c-3.6,0-6.6-2.9-6.6-6.6s2.9-6.6,6.6-6.6h116.8c3.6,0,6.6,2.9,6.6,6.6S536.8,352,533.2,352
	L533.2,352z"/>
<path class="st3" d="M678.3,352H561.5c-3.6,0-6.6-2.9-6.6-6.6s2.9-6.6,6.6-6.6l0,0h116.8c3.6,0,6.6,2.9,6.6,6.6S682,352,678.3,352z"
	/>
<path class="st3" d="M678.3,376.8H475.1c-3.6,0-6.6-2.9-6.6-6.6c0-3.6,2.9-6.6,6.6-6.6l0,0h203.2c3.6,0,6.6,2.9,6.6,6.6
	C684.9,373.9,682,376.8,678.3,376.8C678.4,376.8,678.3,376.8,678.3,376.8z"/>
<path class="st3" d="M533.2,326.7H416.4c-3.6,0-6.6-2.9-6.6-6.6c0-3.6,2.9-6.6,6.6-6.6l0,0h116.8c3.6,0,6.6,2.9,6.6,6.6
	C539.8,323.8,536.8,326.7,533.2,326.7z"/>
<path class="st3" d="M597.5,327.1h-33.2c-3.6,0-6.6-2.9-6.6-6.6s2.9-6.6,6.6-6.6h33.2c3.6,0,6.6,2.9,6.6,6.6
	S601.1,327.1,597.5,327.1z"/>
<path class="st3" d="M449.6,376.8h-33.2c-3.6,0-6.6-2.9-6.6-6.6c0-3.6,2.9-6.6,6.6-6.6l0,0h33.2c3.6,0,6.6,2.9,6.6,6.6
	C456.1,373.9,453.2,376.8,449.6,376.8L449.6,376.8z"/>
<path class="st2" d="M442.7,281.5c-2.5,0-4.9-1-6.6-2.7l-43.9-43.4c-3.6-3.6-3.6-9.3-0.1-12.9l0.1-0.1l43.7-43.2
	c3.8-3.7,9.9-3.7,13.6,0l0,0c3.8,3.8,3.8,9.9,0,13.7L417,225.4c-2.1,2.1-2.1,5.5,0,7.6l32.3,32.3c3.7,3.7,3.7,9.6,0,13.3
	C447.6,280.5,445.2,281.5,442.7,281.5L442.7,281.5z"/>
<path class="st2" d="M621.7,281.5c-5.2,0-9.4-4.2-9.4-9.4c0-2.5,1-4.9,2.8-6.7l32.3-32.3c2.1-2.1,2.1-5.5,0-7.6L614.9,193
	c-3.8-3.8-3.8-9.9,0-13.7l0,0l0,0c3.8-3.7,9.9-3.8,13.6,0l43.7,43.2c3.6,3.6,3.6,9.3,0.1,12.9l-0.1,0.1l-43.9,43.4
	C626.5,280.5,624.1,281.5,621.7,281.5z"/>
<g>
	<g class="st7">
		<path class="st8" d="M513.2,203.3h-19.8l-11,52.6h-8l11-52.6h-19.7l1.3-6.2h47.5L513.2,203.3z"/>
		<path class="st8" d="M559.6,213.9l-32.7,48.7c-5.8,8.7-12.4,13-19.6,13c-2,0-3.7-0.2-5-0.5l1.3-6c1.6,0.5,3.1,0.7,4.5,0.7
			c3.9,0,7.3-2,10.2-6.1l5.6-8l-10.3-41.9h8.7l6.4,32.3c0.1,0.4,0.2,1.5,0.3,3.2h0.3c0.3-0.7,0.8-1.7,1.6-3.1l20.7-32.4H559.6z"/>
		<path class="st8" d="M599.8,255.9h-7.8l5.1-24.2c1.8-8.8-1-13.1-8.6-13.1c-3.8,0-7.3,1.3-10.4,3.8c-3.1,2.5-5.1,5.8-6,9.7l-5,23.8
			h-7.8l13.1-62.2h7.8l-5.7,27.2h0.2c4.9-5.3,10.8-8,17.7-8c11,0,15.3,5.7,12.9,17.1L599.8,255.9z"/>
	</g>
</g>
</svg>
